<?xml version="1.0" encoding="UTF-8" standalone="no"?><!-- Generator: Gravit.io --><svg xmlns="http://www.w3.org/2000/svg" xmlns:xlink="http://www.w3.org/1999/xlink" style="isolation:isolate" viewBox="0 0 16 16" width="16pt" height="16pt"><defs><clipPath id="_clipPath_uMiysz15IBU3hJLlOS3YbghNRblSqxiS"><rect width="16" height="16"/></clipPath></defs><g clip-path="url(#_clipPath_uMiysz15IBU3hJLlOS3YbghNRblSqxiS)"><linearGradient id="_lgradient_0" x1="0.4366004942886432" y1="0.01921927921667077" x2="0.43660049428864306" y2="0.9978940932966651" gradientTransform="matrix(9,0,0,12,22,22)" gradientUnits="userSpaceOnUse"><stop offset="0%" stop-opacity="1" style="stop-color:rgb(249,250,252)"/><stop offset="100%" stop-opacity="1" style="stop-color:rgb(220,231,247)"/></linearGradient><path d=" M 22 22 L 28.264 22 L 31 24.784 L 31 34 L 22 34 L 22 22 Z " fill="url(#_lgradient_0)"/><mask id="_mask_gXOmQc647Ffpgg8tINdl7blCxk5ktEZf" x="-200%" y="-200%" width="400%" height="400%"><rect x="-200%" y="-200%" width="400%" height="400%" style="fill:white;"/><path d=" M 24.315 27.754 L 24.251 29.529 C 23.859 29.394 23.622 29.415 23.144 29.574 C 22.984 29.926 22.902 30.237 23.2 30.614 C 23.598 30.817 23.865 30.698 24.217 30.64 L 24.3 32.405 L 25.9 32.45 C 25.696 31.493 26.08 31.214 26.738 31.164 C 27.572 31.49 27.465 31.996 27.366 32.439 L 28.966 32.406 L 28.996 30.805 C 27.789 30.879 27.873 30.784 27.74 29.983 C 27.887 29.038 28.519 29.391 28.959 29.325 L 28.951 27.74 L 27.206 27.693 C 27.221 27.127 27.507 26.652 26.768 26.453 C 25.598 26.665 26.042 27.116 26.065 27.694 L 24.315 27.754 Z " fill-rule="evenodd" fill="black" stroke="none"/></mask><path d=" M 24.315 27.754 L 24.251 29.529 C 23.859 29.394 23.622 29.415 23.144 29.574 C 22.984 29.926 22.902 30.237 23.2 30.614 C 23.598 30.817 23.865 30.698 24.217 30.64 L 24.3 32.405 L 25.9 32.45 C 25.696 31.493 26.08 31.214 26.738 31.164 C 27.572 31.49 27.465 31.996 27.366 32.439 L 28.966 32.406 L 28.996 30.805 C 27.789 30.879 27.873 30.784 27.74 29.983 C 27.887 29.038 28.519 29.391 28.959 29.325 L 28.951 27.74 L 27.206 27.693 C 27.221 27.127 27.507 26.652 26.768 26.453 C 25.598 26.665 26.042 27.116 26.065 27.694 L 24.315 27.754 Z " fill-rule="evenodd" fill="rgb(117,139,180)" mask="url(#_mask_gXOmQc647Ffpgg8tINdl7blCxk5ktEZf)" vector-effect="non-scaling-stroke" stroke-width="0.2" stroke="rgb(0,0,0)" stroke-linejoin="miter" stroke-linecap="butt" stroke-miterlimit="4"/><path d=" M 24.315 27.754 L 24.251 29.529 C 23.859 29.394 23.622 29.415 23.144 29.574 C 22.984 29.926 22.902 30.237 23.2 30.614 C 23.598 30.817 23.865 30.698 24.217 30.64 L 24.3 32.405 L 25.9 32.45 C 25.696 31.493 26.08 31.214 26.738 31.164 C 27.572 31.49 27.465 31.996 27.366 32.439 L 28.966 32.406 L 28.996 30.805 C 27.789 30.879 27.873 30.784 27.74 29.983 C 27.887 29.038 28.519 29.391 28.959 29.325 L 28.951 27.74 L 27.206 27.693 C 27.221 27.127 27.507 26.652 26.768 26.453 C 25.598 26.665 26.042 27.116 26.065 27.694 L 24.315 27.754 Z " fill-rule="evenodd" fill="rgb(117,139,180)"/><linearGradient id="_lgradient_1" x1="0.4366004942886441" y1="0.01922236255001053" x2="0.43660049428864395" y2="0.9978971766300049" gradientTransform="matrix(9,0,0,12,-33.711,4.267)" gradientUnits="userSpaceOnUse"><stop offset="0%" stop-opacity="1" style="stop-color:rgb(249,250,252)"/><stop offset="100%" stop-opacity="1" style="stop-color:rgb(220,231,247)"/></linearGradient><path d=" M -33.711 4.267 L -27.447 4.267 L -24.711 7.051 L -24.711 16.267 L -33.711 16.267 L -33.711 4.267 Z " fill="url(#_lgradient_1)"/><mask id="_mask_lpXAAPtlnpoL8iO1fBfNwCkuuU0S7Pyn" x="-200%" y="-200%" width="400%" height="400%"><rect x="-200%" y="-200%" width="400%" height="400%" style="fill:white;"/><path d=" M -34.211 3.767 L -27.264 3.767 L -24.23 6.783 L -24.23 16.77 L -34.211 16.77 L -34.211 3.767 Z " fill="black" stroke="none"/></mask><linearGradient id="_lgradient_2" x1="0.5011507572345284" y1="-0.025151923048639446" x2="0.5011507572345282" y2="1.0353131220857534"><stop offset="0%" stop-opacity="1" style="stop-color:rgb(191,182,136)"/><stop offset="100%" stop-opacity="1" style="stop-color:rgb(131,146,176)"/></linearGradient><path d=" M -34.211 3.767 L -27.264 3.767 L -24.23 6.783 L -24.23 16.77 L -34.211 16.77 L -34.211 3.767 Z " fill="none" mask="url(#_mask_lpXAAPtlnpoL8iO1fBfNwCkuuU0S7Pyn)" vector-effect="non-scaling-stroke" stroke-width="2" stroke="url(#_lgradient_2)" stroke-linejoin="miter" stroke-linecap="butt" stroke-miterlimit="4"/><path d=" M -34.211 3.767 L -27.264 3.767 L -24.23 6.783 L -24.23 16.77 L -34.211 16.77 L -34.211 3.767 Z " fill="none"/><linearGradient id="_lgradient_3" x1="0.43660049428864367" y1="0.019222445883329442" x2="0.4366004942886435" y2="0.997897259963338" gradientTransform="matrix(9,0,0,12,-31.711,6.267)" gradientUnits="userSpaceOnUse"><stop offset="0%" stop-opacity="1" style="stop-color:rgb(249,250,252)"/><stop offset="100%" stop-opacity="1" style="stop-color:rgb(220,231,247)"/></linearGradient><path d=" M -31.711 6.267 L -25.447 6.267 L -22.711 9.051 L -22.711 18.267 L -31.711 18.267 L -31.711 6.267 Z " fill="url(#_lgradient_3)"/><linearGradient id="_lgradient_4" x1="0.005555605838674538" y1="0.9688953518102039" x2="0.5055553544230786" y2="0.4911051541020102" gradientTransform="matrix(3.977,0,0,3.911,-25.73,5.359)" gradientUnits="userSpaceOnUse"><stop offset="0%" stop-opacity="1" style="stop-color:rgb(224,200,143)"/><stop offset="100%" stop-opacity="1" style="stop-color:rgb(213,178,105)"/></linearGradient><path d=" M -25.73 5.359 L -25.73 9.27 L -21.752 9.27 L -25.73 5.359 Z " fill="url(#_lgradient_4)"/><mask id="_mask_2XMDZqqlnYOQ1PgmVh6Dvo8SzEr5R8ou" x="-200%" y="-200%" width="400%" height="400%"><rect x="-200%" y="-200%" width="400%" height="400%" style="fill:white;"/><path d=" M -32.211 5.767 L -25.264 5.767 L -22.23 8.783 L -22.23 18.77 L -32.211 18.77 L -32.211 5.767 Z " fill="black" stroke="none"/></mask><linearGradient id="_lgradient_5" x1="0.5011507572345284" y1="-0.025151309320520454" x2="0.5011507572345282" y2="1.0353137358138724"><stop offset="0%" stop-opacity="1" style="stop-color:rgb(191,182,136)"/><stop offset="100%" stop-opacity="1" style="stop-color:rgb(131,146,176)"/></linearGradient><path d=" M -32.211 5.767 L -25.264 5.767 L -22.23 8.783 L -22.23 18.77 L -32.211 18.77 L -32.211 5.767 Z " fill="none" mask="url(#_mask_2XMDZqqlnYOQ1PgmVh6Dvo8SzEr5R8ou)" vector-effect="non-scaling-stroke" stroke-width="2" stroke="url(#_lgradient_5)" stroke-linejoin="miter" stroke-linecap="butt" stroke-miterlimit="4"/><path d=" M -32.211 5.767 L -25.264 5.767 L -22.23 8.783 L -22.23 18.77 L -32.211 18.77 L -32.211 5.767 Z " fill="none"/><linearGradient id="_lgradient_6" x1="1.5026482724778134e-7" y1="0.5003764870198211" x2="1.0000001502648272" y2="0.5003764870198211" gradientTransform="matrix(3.993,0,0,1.01,-30.73,8.259)" gradientUnits="userSpaceOnUse"><stop offset="0%" stop-opacity="1" style="stop-color:rgb(145,165,199)"/><stop offset="100%" stop-opacity="1" style="stop-color:rgb(94,118,163)"/></linearGradient><rect x="-30.73" y="8.259" width="3.993" height="1.01" transform="matrix(1,0,0,1,0,0)" fill="url(#_lgradient_6)"/><linearGradient id="_lgradient_7" x1="5.810025172081623e-8" y1="0.5003699549104113" x2="1.0000000571428571" y2="0.5003699549104113" gradientTransform="matrix(7,0,0,1.01,-30.73,10.27)" gradientUnits="userSpaceOnUse"><stop offset="0%" stop-opacity="1" style="stop-color:rgb(145,165,199)"/><stop offset="100%" stop-opacity="1" style="stop-color:rgb(99,122,167)"/></linearGradient><rect x="-30.73" y="10.27" width="7" height="1.01" transform="matrix(1,0,0,1,0,0)" fill="url(#_lgradient_7)"/><linearGradient id="_lgradient_8" x1="5.810025172081623e-8" y1="0.5003699549106386" x2="1.0000000571428571" y2="0.5003699549106386" gradientTransform="matrix(7,0,0,1.01,-30.73,12.27)" gradientUnits="userSpaceOnUse"><stop offset="0%" stop-opacity="1" style="stop-color:rgb(145,165,199)"/><stop offset="100%" stop-opacity="1" style="stop-color:rgb(99,122,167)"/></linearGradient><rect x="-30.73" y="12.27" width="7" height="1.01" transform="matrix(1,0,0,1,0,0)" fill="url(#_lgradient_8)"/><linearGradient id="_lgradient_9" x1="5.810025172081623e-8" y1="0.5003699549106386" x2="1.0000000571428571" y2="0.5003699549106386" gradientTransform="matrix(7,0,0,1.01,-30.73,14.27)" gradientUnits="userSpaceOnUse"><stop offset="0%" stop-opacity="1" style="stop-color:rgb(145,165,199)"/><stop offset="100%" stop-opacity="1" style="stop-color:rgb(99,122,167)"/></linearGradient><rect x="-30.73" y="14.27" width="7" height="1.01" transform="matrix(1,0,0,1,0,0)" fill="url(#_lgradient_9)"/><linearGradient id="_lgradient_10" x1="1.197744268210954e-7" y1="0.5003764870198211" x2="1.0000000798496176" y2="0.5003764870198211" gradientTransform="matrix(5.009,0,0,1.01,-30.73,16.259)" gradientUnits="userSpaceOnUse"><stop offset="0%" stop-opacity="1" style="stop-color:rgb(145,165,199)"/><stop offset="100%" stop-opacity="1" style="stop-color:rgb(99,122,167)"/></linearGradient><rect x="-30.73" y="16.259" width="5.009" height="1.01" transform="matrix(1,0,0,1,0,0)" fill="url(#_lgradient_10)"/><rect x="20.05" y="0.05" width="15.9" height="15.9" transform="matrix(1,0,0,1,0,0)" fill="none" vector-effect="non-scaling-stroke" stroke-width="0.1" stroke="rgb(0,0,0)" stroke-linejoin="miter" stroke-linecap="square" stroke-miterlimit="2"/><rect x="40.05" y="0.05" width="15.9" height="15.9" transform="matrix(1,0,0,1,0,0)" fill="none" vector-effect="non-scaling-stroke" stroke-width="0.1" stroke="rgb(0,0,0)" stroke-linejoin="miter" stroke-linecap="square" stroke-miterlimit="2"/><rect x="20.05" y="20.05" width="15.9" height="15.9" transform="matrix(1,0,0,1,0,0)" fill="none" vector-effect="non-scaling-stroke" stroke-width="0.1" stroke="rgb(0,0,0)" stroke-linejoin="miter" stroke-linecap="square" stroke-miterlimit="2"/><rect x="40.05" y="20.05" width="15.9" height="15.9" transform="matrix(1,0,0,1,0,0)" fill="none" vector-effect="non-scaling-stroke" stroke-width="0.1" stroke="rgb(0,0,0)" stroke-linejoin="miter" stroke-linecap="square" stroke-miterlimit="2"/><linearGradient id="_lgradient_11" x1="0.4366004942886432" y1="0.01921927921668498" x2="0.43660049428864306" y2="0.9978940932966651" gradientTransform="matrix(9,0,0,12,22,2)" gradientUnits="userSpaceOnUse"><stop offset="0%" stop-opacity="1" style="stop-color:rgb(249,250,252)"/><stop offset="100%" stop-opacity="1" style="stop-color:rgb(220,231,247)"/></linearGradient><path d=" M 22 2 L 28.264 2 L 31 4.784 L 31 14 L 22 14 L 22 2 Z " fill="url(#_lgradient_11)"/><linearGradient id="_lgradient_12" x1="0.005555605838675426" y1="0.9688842299038924" x2="0.5055553544230786" y2="0.4910940321956996" gradientTransform="matrix(3.977,0,0,3.911,27.981,1.091)" gradientUnits="userSpaceOnUse"><stop offset="0%" stop-opacity="1" style="stop-color:rgb(224,200,143)"/><stop offset="100%" stop-opacity="1" style="stop-color:rgb(213,178,105)"/></linearGradient><path d=" M 27.981 1.091 L 27.981 5.003 L 31.958 5.003 L 27.981 1.091 Z " fill="url(#_lgradient_12)"/><mask id="_mask_gaQZCwpGT514O6G9Np6idI2ui0nACNZj" x="-200%" y="-200%" width="400%" height="400%"><rect x="-200%" y="-200%" width="400%" height="400%" style="fill:white;"/><path d=" M 21.5 1.5 L 28.446 1.5 L 31.481 4.516 L 31.481 14.503 L 21.5 14.503 L 21.5 1.5 Z " fill="black" stroke="none"/></mask><linearGradient id="_lgradient_13" x1="0.5011507572345284" y1="-0.02515480710941631" x2="0.5011507572345282" y2="1.0353102380249766"><stop offset="0%" stop-opacity="1" style="stop-color:rgb(191,182,136)"/><stop offset="100%" stop-opacity="1" style="stop-color:rgb(131,146,176)"/></linearGradient><path d=" M 21.5 1.5 L 28.446 1.5 L 31.481 4.516 L 31.481 14.503 L 21.5 14.503 L 21.5 1.5 Z " fill="none" mask="url(#_mask_gaQZCwpGT514O6G9Np6idI2ui0nACNZj)" vector-effect="non-scaling-stroke" stroke-width="2" stroke="url(#_lgradient_13)" stroke-linejoin="miter" stroke-linecap="butt" stroke-miterlimit="4"/><path d=" M 21.5 1.5 L 28.446 1.5 L 31.481 4.516 L 31.481 14.503 L 21.5 14.503 L 21.5 1.5 Z " fill="none"/><linearGradient id="_lgradient_14" x1="0.4366004942886441" y1="0.01921927921668498" x2="0.43660049428864395" y2="0.9978940932966651" gradientTransform="matrix(9,0,0,12,42,2)" gradientUnits="userSpaceOnUse"><stop offset="0%" stop-opacity="1" style="stop-color:rgb(249,250,252)"/><stop offset="100%" stop-opacity="1" style="stop-color:rgb(220,231,247)"/></linearGradient><path d=" M 42 2 L 48.264 2 L 51 4.784 L 51 14 L 42 14 L 42 2 Z " fill="url(#_lgradient_14)"/><linearGradient id="_lgradient_15" x1="0.005555605838674538" y1="0.9688842299038924" x2="0.5055553544230786" y2="0.49109403219569875" gradientTransform="matrix(3.977,0,0,3.911,47.981,1.091)" gradientUnits="userSpaceOnUse"><stop offset="0%" stop-opacity="1" style="stop-color:rgb(224,200,143)"/><stop offset="100%" stop-opacity="1" style="stop-color:rgb(213,178,105)"/></linearGradient><path d=" M 47.981 1.091 L 47.981 5.003 L 51.958 5.003 L 47.981 1.091 Z " fill="url(#_lgradient_15)"/><mask id="_mask_GW6KULh30uvNeVbLEWlBcVkGOgSIDIZr" x="-200%" y="-200%" width="400%" height="400%"><rect x="-200%" y="-200%" width="400%" height="400%" style="fill:white;"/><path d=" M 41.5 1.5 L 48.446 1.5 L 51.481 4.516 L 51.481 14.503 L 41.5 14.503 L 41.5 1.5 Z " fill="black" stroke="none"/></mask><linearGradient id="_lgradient_16" x1="0.5011507572345284" y1="-0.02515480710941631" x2="0.5011507572345282" y2="1.0353102380249766"><stop offset="0%" stop-opacity="1" style="stop-color:rgb(191,182,136)"/><stop offset="100%" stop-opacity="1" style="stop-color:rgb(131,146,176)"/></linearGradient><path d=" M 41.5 1.5 L 48.446 1.5 L 51.481 4.516 L 51.481 14.503 L 41.5 14.503 L 41.5 1.5 Z " fill="none" mask="url(#_mask_GW6KULh30uvNeVbLEWlBcVkGOgSIDIZr)" vector-effect="non-scaling-stroke" stroke-width="2" stroke="url(#_lgradient_16)" stroke-linejoin="miter" stroke-linecap="butt" stroke-miterlimit="4"/><path d=" M 41.5 1.5 L 48.446 1.5 L 51.481 4.516 L 51.481 14.503 L 41.5 14.503 L 41.5 1.5 Z " fill="none"/><linearGradient id="_lgradient_17" x1="0.4366004942886441" y1="0.01921927921667077" x2="0.43660049428864395" y2="0.9978940932966651" gradientTransform="matrix(9,0,0,12,42,22)" gradientUnits="userSpaceOnUse"><stop offset="0%" stop-opacity="1" style="stop-color:rgb(249,250,252)"/><stop offset="100%" stop-opacity="1" style="stop-color:rgb(220,231,247)"/></linearGradient><path d=" M 42 22 L 48.264 22 L 51 24.784 L 51 34 L 42 34 L 42 22 Z " fill="url(#_lgradient_17)"/><linearGradient id="_lgradient_18" x1="0.005555605838674538" y1="0.9688842299038924" x2="0.5055553544230786" y2="0.49109403219569875" gradientTransform="matrix(3.977,0,0,3.911,47.981,21.091)" gradientUnits="userSpaceOnUse"><stop offset="0%" stop-opacity="1" style="stop-color:rgb(224,200,143)"/><stop offset="100%" stop-opacity="1" style="stop-color:rgb(213,178,105)"/></linearGradient><path d=" M 47.981 21.091 L 47.981 25.003 L 51.958 25.003 L 47.981 21.091 Z " fill="url(#_lgradient_18)"/><mask id="_mask_oOAWGyKWUChhUy7ieudakyaFwt7MQoJR" x="-200%" y="-200%" width="400%" height="400%"><rect x="-200%" y="-200%" width="400%" height="400%" style="fill:white;"/><path d=" M 41.5 21.5 L 48.446 21.5 L 51.481 24.516 L 51.481 34.503 L 41.5 34.503 L 41.5 21.5 Z " fill="black" stroke="none"/></mask><linearGradient id="_lgradient_19" x1="0.5011507572345284" y1="-0.02515480710941631" x2="0.5011507572345282" y2="1.0353102380249766"><stop offset="0%" stop-opacity="1" style="stop-color:rgb(191,182,136)"/><stop offset="100%" stop-opacity="1" style="stop-color:rgb(131,146,176)"/></linearGradient><path d=" M 41.5 21.5 L 48.446 21.5 L 51.481 24.516 L 51.481 34.503 L 41.5 34.503 L 41.5 21.5 Z " fill="none" mask="url(#_mask_oOAWGyKWUChhUy7ieudakyaFwt7MQoJR)" vector-effect="non-scaling-stroke" stroke-width="2" stroke="url(#_lgradient_19)" stroke-linejoin="miter" stroke-linecap="butt" stroke-miterlimit="4"/><path d=" M 41.5 21.5 L 48.446 21.5 L 51.481 24.516 L 51.481 34.503 L 41.5 34.503 L 41.5 21.5 Z " fill="none"/><linearGradient id="_lgradient_20" x1="0.005555605838675426" y1="0.9688842299038924" x2="0.5055553544230786" y2="0.4910940321956996" gradientTransform="matrix(3.977,0,0,3.911,27.981,21.091)" gradientUnits="userSpaceOnUse"><stop offset="0%" stop-opacity="1" style="stop-color:rgb(224,200,143)"/><stop offset="100%" stop-opacity="1" style="stop-color:rgb(213,178,105)"/></linearGradient><path d=" M 27.981 21.091 L 27.981 25.003 L 31.958 25.003 L 27.981 21.091 Z " fill="url(#_lgradient_20)"/><mask id="_mask_pzd0CiofSDeqVpmHBQypj7NzRblRL83K" x="-200%" y="-200%" width="400%" height="400%"><rect x="-200%" y="-200%" width="400%" height="400%" style="fill:white;"/><path d=" M 21.5 21.5 L 28.446 21.5 L 31.481 24.516 L 31.481 34.503 L 21.5 34.503 L 21.5 21.5 Z " fill="black" stroke="none"/></mask><linearGradient id="_lgradient_21" x1="0.5011507572345284" y1="-0.02515480710941631" x2="0.5011507572345282" y2="1.0353102380249766"><stop offset="0%" stop-opacity="1" style="stop-color:rgb(191,182,136)"/><stop offset="100%" stop-opacity="1" style="stop-color:rgb(131,146,176)"/></linearGradient><path d=" M 21.5 21.5 L 28.446 21.5 L 31.481 24.516 L 31.481 34.503 L 21.5 34.503 L 21.5 21.5 Z " fill="none" mask="url(#_mask_pzd0CiofSDeqVpmHBQypj7NzRblRL83K)" vector-effect="non-scaling-stroke" stroke-width="2" stroke="url(#_lgradient_21)" stroke-linejoin="miter" stroke-linecap="butt" stroke-miterlimit="4"/><path d=" M 21.5 21.5 L 28.446 21.5 L 31.481 24.516 L 31.481 34.503 L 21.5 34.503 L 21.5 21.5 Z " fill="none"/><linearGradient id="_lgradient_22" x1="0.4366004831775323" y1="0.01921927921668498" x2="0.43660048317753214" y2="0.9978940932966651" gradientTransform="matrix(9,0,0,12,2,2)" gradientUnits="userSpaceOnUse"><stop offset="0%" stop-opacity="1" style="stop-color:rgb(249,250,252)"/><stop offset="100%" stop-opacity="1" style="stop-color:rgb(220,231,247)"/></linearGradient><path d=" M 2 2 L 8.264 2 L 11 4.784 L 11 14 L 2 14 L 2 2 Z " fill="url(#_lgradient_22)"/><linearGradient id="_lgradient_23" x1="0.005555580697115481" y1="0.9688842043362342" x2="0.5055553292815196" y2="0.4910940066280409" gradientTransform="matrix(3.977,0,0,3.911,8,1.089)" gradientUnits="userSpaceOnUse"><stop offset="0%" stop-opacity="1" style="stop-color:rgb(224,200,143)"/><stop offset="100%" stop-opacity="1" style="stop-color:rgb(213,178,105)"/></linearGradient><path d=" M 8 1.089 L 8 5 L 11.977 5 L 8 1.089 Z " fill="url(#_lgradient_23)"/><mask id="_mask_OK2qv2aPI2UaHJS1dVWLn5gVt7Q2SRKM" x="-200%" y="-200%" width="400%" height="400%"><rect x="-200%" y="-200%" width="400%" height="400%" style="fill:white;"/><path d=" M 1.5 1.5 L 8.46 1.5 L 11.5 4.516 L 11.5 14.503 L 1.5 14.503 L 1.5 1.5 Z " fill="black" stroke="none"/></mask><linearGradient id="_lgradient_24" x1="0.501150777347072" y1="-0.02515480710941631" x2="0.5011507773470718" y2="1.0353102380249766"><stop offset="0%" stop-opacity="1" style="stop-color:rgb(191,182,136)"/><stop offset="100%" stop-opacity="1" style="stop-color:rgb(131,146,176)"/></linearGradient><path d=" M 1.5 1.5 L 8.46 1.5 L 11.5 4.516 L 11.5 14.503 L 1.5 14.503 L 1.5 1.5 Z " fill="none" mask="url(#_mask_OK2qv2aPI2UaHJS1dVWLn5gVt7Q2SRKM)" vector-effect="non-scaling-stroke" stroke-width="2" stroke="url(#_lgradient_24)" stroke-linejoin="miter" stroke-linecap="butt" stroke-miterlimit="4"/><path d=" M 1.5 1.5 L 8.46 1.5 L 11.5 4.516 L 11.5 14.503 L 1.5 14.503 L 1.5 1.5 Z " fill="none"/><g><defs><filter id="qRY0FCUgSVj7UHwVvKHsLleXLJbqY8D9" x="-200%" y="-200%" width="400%" height="400%" filterUnits="objectBoundingBox" color-interpolation-filters="sRGB"><feGaussianBlur xmlns="http://www.w3.org/2000/svg" stdDeviation="0.33647254138027205"/></filter></defs><g opacity="0.70099996" filter="url(#qRY0FCUgSVj7UHwVvKHsLleXLJbqY8D9)"><path d=" M -50.626 -61.561 L -50.516 -61.415 L -50.409 -61.561 L -50.463 -61.635 L -50.571 -61.635 L -50.626 -61.561 Z " fill-rule="evenodd" fill="rgb(255,255,255)"/></g><mask id="_mask_whF05psA6SUHyNASvxoud1MvPER21iDi" x="-200%" y="-200%" width="400%" height="400%"><rect x="-200%" y="-200%" width="400%" height="400%" style="fill:white;"/><path d=" M 23.098 8.198 L 26.507 11.588 L 29.936 8.188 L 28.069 6.491 L 24.921 6.491 L 23.098 8.198 Z " fill-rule="evenodd" fill="black" stroke="none"/></mask><linearGradient id="_lgradient_25" x1="0.6011981344642408" y1="0.8138938036601377" x2="0.3284424053380963" y2="0.17417370616738304"><stop offset="0%" stop-opacity="1" style="stop-color:rgb(219,147,3)"/><stop offset="100%" stop-opacity="1" style="stop-color:rgb(253,188,58)"/></linearGradient><path d=" M 23.098 8.198 L 26.507 11.588 L 29.936 8.188 L 28.069 6.491 L 24.921 6.491 L 23.098 8.198 Z " fill-rule="evenodd" fill="rgb(252,176,24)" mask="url(#_mask_whF05psA6SUHyNASvxoud1MvPER21iDi)" vector-effect="non-scaling-stroke" stroke-width="2.007" stroke="url(#_lgradient_25)" stroke-linejoin="miter" stroke-linecap="butt" stroke-miterlimit="4"/><path d=" M 23.098 8.198 L 26.507 11.588 L 29.936 8.188 L 28.069 6.491 L 24.921 6.491 L 23.098 8.198 Z " fill-rule="evenodd" fill="rgb(252,176,24)"/><path d=" M 23.476 8.192 L 25.008 6.737 L 27.98 6.748 L 29.526 8.181 L 23.476 8.192 Z " fill-rule="evenodd" fill="rgb(253,204,105)"/><path d=" M 25 6.742 L 26.516 8.195 L 27.96 6.742 L 25 6.742 Z " fill-rule="evenodd" fill="rgb(255,231,186)"/><path d=" M 23.506 8.195 L 26.527 8.19 L 26.505 11.253 L 23.506 8.195 Z " fill-rule="evenodd" fill="rgb(254,224,166)"/><path d=" M 25.003 7.478 L 26.24 6.718 L 25.526 7.981 L 27.212 10.174 L 25.03 8.508 L 22.766 10.148 L 24.477 7.969 L 23.685 6.72 L 25.003 7.478 Z " fill-rule="evenodd" fill="rgb(255,255,255)"/></g><g><g><defs><filter id="pNVZrZlTHkRrh4V2UlpTu3TXFU7nJRxW" x="-200%" y="-200%" width="400%" height="400%" filterUnits="objectBoundingBox" color-interpolation-filters="sRGB"><feGaussianBlur xmlns="http://www.w3.org/2000/svg" stdDeviation="0.08388635017775663"/></filter></defs><g opacity="0.34200003" filter="url(#pNVZrZlTHkRrh4V2UlpTu3TXFU7nJRxW)"><mask id="_mask_PuNeBr2loSn99c5RmbqfKm0h7yzc26A0" x="-200%" y="-200%" width="400%" height="400%"><rect x="-200%" y="-200%" width="400%" height="400%" style="fill:white;"/><path d=" M 39.238 -622.659 L 39.917 -622.659 L 40.088 -623.775 L 39.066 -623.775 L 39.238 -622.659 Z " fill="black" stroke="none"/></mask><path d=" M 39.238 -622.659 L 39.917 -622.659 L 40.088 -623.775 L 39.066 -623.775 L 39.238 -622.659 Z " fill="rgb(0,0,0)" mask="url(#_mask_PuNeBr2loSn99c5RmbqfKm0h7yzc26A0)" vector-effect="non-scaling-stroke" stroke-width="0.791" stroke="rgb(0,0,0)" stroke-linejoin="miter" stroke-linecap="butt" stroke-miterlimit="4"/><path d=" M 39.238 -622.659 L 39.917 -622.659 L 40.088 -623.775 L 39.066 -623.775 L 39.238 -622.659 Z " fill="rgb(0,0,0)"/></g><defs><filter id="Sscd9V4ZXCl1Rd3HmMNcGKjWPx56bBAN" x="-200%" y="-200%" width="400%" height="400%" filterUnits="objectBoundingBox" color-interpolation-filters="sRGB"><feGaussianBlur xmlns="http://www.w3.org/2000/svg" stdDeviation="0.08388635017775663"/></filter></defs><g opacity="0.34200003" filter="url(#Sscd9V4ZXCl1Rd3HmMNcGKjWPx56bBAN)"><mask id="_mask_j97jfKAnfnyIP1rSAO2IsQPTUHeHMBIK" x="-200%" y="-200%" width="400%" height="400%"><rect x="-200%" y="-200%" width="400%" height="400%" style="fill:white;"/><path d=" M 39.021 -622.877 L 39.021 -623.558 L 40.133 -623.73 L 40.133 -622.705 L 39.021 -622.877 Z " fill="black" stroke="none"/></mask><path d=" M 39.021 -622.877 L 39.021 -623.558 L 40.133 -623.73 L 40.133 -622.705 L 39.021 -622.877 Z " fill="rgb(0,0,0)" mask="url(#_mask_j97jfKAnfnyIP1rSAO2IsQPTUHeHMBIK)" vector-effect="non-scaling-stroke" stroke-width="0.791" stroke="rgb(0,0,0)" stroke-linejoin="miter" stroke-linecap="butt" stroke-miterlimit="4"/><path d=" M 39.021 -622.877 L 39.021 -623.558 L 40.133 -623.73 L 40.133 -622.705 L 39.021 -622.877 Z " fill="rgb(0,0,0)"/></g><defs><filter id="KGWrceMRsr5fXFIWmiCDAMzEuV21L9Co" x="-200%" y="-200%" width="400%" height="400%" filterUnits="objectBoundingBox" color-interpolation-filters="sRGB"><feGaussianBlur xmlns="http://www.w3.org/2000/svg" stdDeviation="0.39886031"/></filter></defs><g opacity="0.34200003" filter="url(#KGWrceMRsr5fXFIWmiCDAMzEuV21L9Co)"><mask id="_mask_aDUIZS4kISatgROxQELj7AsuMIoO6NrD" x="-200%" y="-200%" width="400%" height="400%"><rect x="-200%" y="-200%" width="400%" height="400%" style="fill:white;"/><path d=" M 42.557 -635.992 L 42.557 -635.333 L 41.573 -635.168 L 41.573 -636.158 L 42.557 -635.992 Z " fill="black" stroke="none"/></mask><path d=" M 42.557 -635.992 L 42.557 -635.333 L 41.573 -635.168 L 41.573 -636.158 L 42.557 -635.992 Z " fill="rgb(0,0,0)" mask="url(#_mask_aDUIZS4kISatgROxQELj7AsuMIoO6NrD)" vector-effect="non-scaling-stroke" stroke-width="0.775" stroke="rgb(0,0,0)" stroke-linejoin="miter" stroke-linecap="butt" stroke-miterlimit="4"/><path d=" M 42.557 -635.992 L 42.557 -635.333 L 41.573 -635.168 L 41.573 -636.158 L 42.557 -635.992 Z " fill="rgb(0,0,0)"/></g><defs><filter id="erbcImj75Pwb3I7rYAyHmYGxjN9sYWNR" x="-200%" y="-200%" width="400%" height="400%" filterUnits="objectBoundingBox" color-interpolation-filters="sRGB"><feGaussianBlur xmlns="http://www.w3.org/2000/svg" stdDeviation="0.08388635017775663"/></filter></defs><g opacity="0.34200003" filter="url(#erbcImj75Pwb3I7rYAyHmYGxjN9sYWNR)"><mask id="_mask_q86hu15Bwz6ZyEQlutYyuc53NlmI5bTd" x="-200%" y="-200%" width="400%" height="400%"><rect x="-200%" y="-200%" width="400%" height="400%" style="fill:white;"/><path d=" M 40.056 -623.312 L 39.672 -623.698 L 39.098 -623.317 L 39.676 -622.737 L 40.056 -623.312 Z " fill="black" stroke="none"/></mask><path d=" M 40.056 -623.312 L 39.672 -623.698 L 39.098 -623.317 L 39.676 -622.737 L 40.056 -623.312 Z " fill="rgb(0,0,0)" mask="url(#_mask_q86hu15Bwz6ZyEQlutYyuc53NlmI5bTd)" vector-effect="non-scaling-stroke" stroke-width="0.791" stroke="rgb(0,0,0)" stroke-linejoin="miter" stroke-linecap="butt" stroke-miterlimit="4"/><path d=" M 40.056 -623.312 L 39.672 -623.698 L 39.098 -623.317 L 39.676 -622.737 L 40.056 -623.312 Z " fill="rgb(0,0,0)"/></g><defs><filter id="AyEjaZiK2cqoKwhRB8zuX9qp9I1nzo3Y" x="-200%" y="-200%" width="400%" height="400%" filterUnits="objectBoundingBox" color-interpolation-filters="sRGB"><feGaussianBlur xmlns="http://www.w3.org/2000/svg" stdDeviation="0.08388635017775663"/></filter></defs><g opacity="0.34200003" filter="url(#AyEjaZiK2cqoKwhRB8zuX9qp9I1nzo3Y)"><mask id="_mask_xetJrgl5TOpjU4m37RPUzHtinWOcejvW" x="-200%" y="-200%" width="400%" height="400%"><rect x="-200%" y="-200%" width="400%" height="400%" style="fill:white;"/><path d=" M 39.098 -623.122 L 39.482 -622.737 L 40.056 -623.118 L 39.478 -623.698 L 39.098 -623.122 Z " fill="black" stroke="none"/></mask><path d=" M 39.098 -623.122 L 39.482 -622.737 L 40.056 -623.118 L 39.478 -623.698 L 39.098 -623.122 Z " fill="rgb(0,0,0)" mask="url(#_mask_xetJrgl5TOpjU4m37RPUzHtinWOcejvW)" vector-effect="non-scaling-stroke" stroke-width="0.791" stroke="rgb(0,0,0)" stroke-linejoin="miter" stroke-linecap="butt" stroke-miterlimit="4"/><path d=" M 39.098 -623.122 L 39.482 -622.737 L 40.056 -623.118 L 39.478 -623.698 L 39.098 -623.122 Z " fill="rgb(0,0,0)"/></g><defs><filter id="3VLI5AwXlNIHQCCCanu2uWU0Arw2GWDv" x="-200%" y="-200%" width="400%" height="400%" filterUnits="objectBoundingBox" color-interpolation-filters="sRGB"><feGaussianBlur xmlns="http://www.w3.org/2000/svg" stdDeviation="0.08388635017775663"/></filter></defs><g opacity="0.34200003" filter="url(#3VLI5AwXlNIHQCCCanu2uWU0Arw2GWDv)"><mask id="_mask_TvM3TGhsgnHMzsRoOEjiqojdm7aTL1kt" x="-200%" y="-200%" width="400%" height="400%"><rect x="-200%" y="-200%" width="400%" height="400%" style="fill:white;"/><path d=" M 39.672 -622.737 L 40.056 -623.122 L 39.676 -623.698 L 39.098 -623.118 L 39.672 -622.737 Z " fill="black" stroke="none"/></mask><path d=" M 39.672 -622.737 L 40.056 -623.122 L 39.676 -623.698 L 39.098 -623.118 L 39.672 -622.737 Z " fill="rgb(0,0,0)" mask="url(#_mask_TvM3TGhsgnHMzsRoOEjiqojdm7aTL1kt)" vector-effect="non-scaling-stroke" stroke-width="0.791" stroke="rgb(0,0,0)" stroke-linejoin="miter" stroke-linecap="butt" stroke-miterlimit="4"/><path d=" M 39.672 -622.737 L 40.056 -623.122 L 39.676 -623.698 L 39.098 -623.118 L 39.672 -622.737 Z " fill="rgb(0,0,0)"/></g><defs><filter id="JtvVXHOBQNzC0k6ACYwxDERRpQelydAh" x="-200%" y="-200%" width="400%" height="400%" filterUnits="objectBoundingBox" color-interpolation-filters="sRGB"><feGaussianBlur xmlns="http://www.w3.org/2000/svg" stdDeviation="0.10409926002902177"/></filter></defs><g opacity="0.372" filter="url(#JtvVXHOBQNzC0k6ACYwxDERRpQelydAh)"><ellipse vector-effect="non-scaling-stroke" cx="39.577193578284344" cy="-623.217306584065" rx="0.40386469957546467" ry="0.40502876971652313" fill="none" stroke-width="2.375" stroke="rgb(0,0,0)" stroke-linejoin="miter" stroke-linecap="butt" stroke-miterlimit="4"/></g></g><path d=" M 46.029 5.492 L 47.241 5.492 L 47.547 6.963 L 45.724 6.963 L 46.029 5.492 Z " fill="rgb(195,156,208)"/><path d=" M 46.042 13.789 L 47.254 13.789 L 47.56 12.318 L 45.737 12.318 L 46.042 13.789 Z " fill="rgb(155,89,169)"/><path d=" M 42.402 10.225 L 42.402 9.041 L 43.906 8.742 L 43.907 10.524 L 42.402 10.225 Z " fill="rgb(181,138,195)"/><path d=" M 50.886 9.053 L 50.886 10.238 L 49.382 10.537 L 49.382 8.755 L 50.886 9.053 Z " fill="rgb(168,113,182)"/><path d=" M 43.23 7.103 L 44.087 6.266 L 45.367 7.094 L 44.078 8.355 L 43.23 7.103 Z " fill="rgb(192,153,205)"/><path d=" M 50.081 7.102 L 49.224 6.264 L 47.944 7.093 L 49.233 8.353 L 50.081 7.102 Z " fill="rgb(183,141,196)"/><path d=" M 43.215 12.138 L 44.072 12.976 L 45.352 12.147 L 44.063 10.887 L 43.215 12.138 Z " fill="rgb(168,113,182)"/><path d=" M 49.198 12.963 L 50.055 12.125 L 49.207 10.874 L 47.918 12.134 L 49.198 12.963 Z " fill="rgb(155,88,169)"/></g><linearGradient id="_lgradient_26" x1="0.301560072395068" y1="-0.0015527499533618538" x2="0.6748375213446209" y2="0.8866520171620265"><stop offset="0%" stop-opacity="1" style="stop-color:rgb(187,148,200)"/><stop offset="100%" stop-opacity="1" style="stop-color:rgb(153,85,167)"/></linearGradient><ellipse vector-effect="non-scaling-stroke" cx="46.70216" cy="9.674199999999928" rx="2.306978899999997" ry="2.2550106000000003" fill="none" stroke-width="1.5" stroke="url(#_lgradient_26)" stroke-linejoin="miter" stroke-linecap="butt" stroke-miterlimit="4"/><path d=" M -12.115 22.718 C -11.991 22.592 -11.788 22.592 -11.663 22.718 L -5.434 28.946 C -5.31 29.071 -5.31 29.274 -5.434 29.398 C -5.559 29.523 -5.762 29.523 -5.887 29.398 L -6.674 28.611 L -7.542 27.743 L -12.115 23.17 C -12.24 23.045 -12.24 22.842 -12.115 22.718 L -12.115 22.718 Z  M -11.754 22.793 C -11.833 22.714 -11.962 22.714 -12.041 22.793 C -12.12 22.872 -12.12 23.001 -12.041 23.08 L -11.49 23.631 C -11.411 23.71 -11.282 23.71 -11.203 23.631 C -11.123 23.552 -11.123 23.423 -11.203 23.344 L -11.754 22.793 Z  M -5.826 29.295 C -5.747 29.374 -5.619 29.374 -5.539 29.294 C -5.46 29.216 -5.46 29.087 -5.539 29.007 L -6.09 28.456 C -6.103 28.441 -6.118 28.433 -6.132 28.425 C -6.141 28.493 -6.17 28.56 -6.222 28.612 C -6.275 28.664 -6.341 28.693 -6.409 28.702 C -6.4 28.717 -6.39 28.731 -6.378 28.743 L -5.826 29.294 L -5.826 29.295 Z " fill="rgb(0,0,0)"/><path d=" M 26.623 26.539 C 26.732 26.539 26.841 26.566 26.942 26.621 C 27.017 26.662 27.085 26.723 27.126 26.797 C 27.241 27.015 27.241 27.253 27.126 27.443 C 27.078 27.518 27.078 27.606 27.119 27.68 C 27.16 27.755 27.234 27.803 27.323 27.803 L 28.912 27.803 L 28.912 29.324 C 28.79 29.263 28.654 29.229 28.511 29.229 L 28.511 29.229 C 28.355 29.229 28.199 29.27 28.049 29.351 C 27.927 29.419 27.825 29.521 27.757 29.643 C 27.601 29.942 27.601 30.268 27.764 30.54 C 27.92 30.798 28.199 30.954 28.504 30.954 C 28.64 30.954 28.783 30.92 28.905 30.859 L 28.905 32.38 L 27.391 32.38 C 27.452 32.258 27.486 32.122 27.486 31.98 C 27.486 31.504 27.099 31.117 26.623 31.117 C 26.474 31.117 26.318 31.158 26.175 31.233 C 26.046 31.301 25.944 31.402 25.883 31.525 C 25.727 31.81 25.72 32.115 25.856 32.38 L 24.334 32.38 L 24.334 30.791 C 24.334 30.662 24.232 30.56 24.103 30.56 C 24.056 30.56 24.015 30.574 23.981 30.594 C 23.886 30.655 23.777 30.682 23.669 30.682 C 23.458 30.682 23.268 30.573 23.159 30.397 C 23.044 30.213 23.044 29.983 23.159 29.772 C 23.2 29.697 23.261 29.629 23.336 29.589 C 23.445 29.528 23.553 29.501 23.669 29.501 C 23.777 29.501 23.886 29.535 23.981 29.589 C 24.022 29.609 24.063 29.623 24.103 29.623 C 24.232 29.623 24.334 29.521 24.334 29.392 L 24.334 27.802 L 25.924 27.802 C 26.012 27.802 26.087 27.754 26.127 27.687 C 26.168 27.612 26.168 27.517 26.121 27.449 C 26.059 27.354 26.032 27.246 26.032 27.137 C 26.032 26.981 26.093 26.831 26.209 26.716 C 26.324 26.6 26.467 26.539 26.623 26.539 L 26.623 26.539 M 26.623 26.403 C 26.222 26.403 25.896 26.729 25.896 27.13 C 25.896 27.273 25.937 27.402 26.005 27.51 C 26.046 27.578 26.005 27.66 25.924 27.66 L 24.294 27.66 C 24.239 27.66 24.199 27.701 24.199 27.755 L 24.199 29.385 C 24.199 29.439 24.151 29.48 24.103 29.48 C 24.083 29.48 24.069 29.47 24.049 29.466 C 23.94 29.398 23.805 29.357 23.662 29.357 C 23.533 29.357 23.404 29.391 23.268 29.459 C 23.166 29.513 23.085 29.595 23.037 29.697 C 22.745 30.261 23.139 30.817 23.662 30.817 C 23.805 30.817 23.934 30.776 24.042 30.709 C 24.063 30.695 24.076 30.695 24.097 30.695 C 24.144 30.695 24.192 30.736 24.192 30.79 L 24.192 32.42 C 24.192 32.474 24.232 32.515 24.287 32.515 L 25.917 32.515 C 25.992 32.515 26.039 32.433 25.998 32.365 C 25.869 32.155 25.842 31.87 25.992 31.584 C 26.046 31.482 26.127 31.401 26.229 31.353 C 26.358 31.285 26.487 31.252 26.616 31.252 C 27.017 31.252 27.343 31.578 27.343 31.978 C 27.343 32.121 27.302 32.25 27.234 32.359 C 27.194 32.427 27.234 32.508 27.316 32.508 L 28.946 32.508 C 29 32.508 29.041 32.467 29.041 32.413 L 29.041 30.783 C 29.041 30.729 28.993 30.688 28.946 30.688 C 28.926 30.688 28.912 30.698 28.892 30.702 C 28.783 30.77 28.647 30.811 28.511 30.811 C 27.988 30.811 27.588 30.254 27.88 29.697 C 27.934 29.595 28.015 29.513 28.111 29.459 C 28.246 29.384 28.375 29.357 28.504 29.357 C 28.647 29.357 28.776 29.398 28.892 29.466 C 28.905 29.48 28.926 29.48 28.946 29.48 C 28.993 29.48 29.041 29.439 29.041 29.385 L 29.041 27.762 C 29.041 27.708 29 27.667 28.946 27.667 L 27.316 27.667 C 27.241 27.667 27.194 27.585 27.234 27.517 C 27.363 27.307 27.391 27.021 27.241 26.736 C 27.187 26.634 27.105 26.553 27.004 26.505 C 26.874 26.437 26.745 26.403 26.623 26.403 L 26.623 26.403 L 26.623 26.403 Z " fill="rgb(100,123,167)" vector-effect="non-scaling-stroke" stroke-width="0.068" stroke="rgb(104,126,170)" stroke-linejoin="miter" stroke-linecap="butt" stroke-miterlimit="4"/><linearGradient id="_lgradient_27" x1="0.4366004748841779" y1="0.019216612550010836" x2="0.43660047488417775" y2="0.997891426629991" gradientTransform="matrix(9,0,0,12,2.754,19.476)" gradientUnits="userSpaceOnUse"><stop offset="0%" stop-opacity="1" style="stop-color:rgb(249,250,252)"/><stop offset="100%" stop-opacity="1" style="stop-color:rgb(220,231,247)"/></linearGradient><path d=" M 2.754 19.476 L 9.018 19.476 L 11.754 22.26 L 11.754 31.476 L 2.754 31.476 L 2.754 19.476 Z " fill="url(#_lgradient_27)"/><path d=" M 10.557 30.792 L 7.373 28.463 L 11.317 28.475 L 8.119 30.784 L 9.349 27.037 L 10.557 30.792" fill="rgb(219,191,127)"/><linearGradient id="_lgradient_28" x1="0.005555580138411287" y1="0.9688760482716816" x2="0.505555278439727" y2="0.49108589861304586" gradientTransform="matrix(3.977,0,0,3.911,8.734,18.567)" gradientUnits="userSpaceOnUse"><stop offset="0%" stop-opacity="1" style="stop-color:rgb(224,200,143)"/><stop offset="100%" stop-opacity="1" style="stop-color:rgb(213,178,105)"/></linearGradient><path d=" M 8.734 18.567 L 8.734 22.478 L 12.712 22.478 L 8.734 18.567 Z " fill="url(#_lgradient_28)"/><mask id="_mask_f86jpAxbtwKeb559TZqO1GH0YSaYCLsi" x="-200%" y="-200%" width="400%" height="400%"><rect x="-200%" y="-200%" width="400%" height="400%" style="fill:white;"/><path d=" M 2.254 18.976 L 9.2 18.976 L 12.234 21.992 L 12.234 31.978 L 2.254 31.978 L 2.254 18.976 Z " fill="black" stroke="none"/></mask><linearGradient id="_lgradient_29" x1="0.5011507371495745" y1="-0.025157268174581304" x2="0.5011507371495743" y2="1.0353077769598116"><stop offset="0%" stop-opacity="1" style="stop-color:rgb(191,182,136)"/><stop offset="100%" stop-opacity="1" style="stop-color:rgb(131,146,176)"/></linearGradient><path d=" M 2.254 18.976 L 9.2 18.976 L 12.234 21.992 L 12.234 31.978 L 2.254 31.978 L 2.254 18.976 Z " fill="none" mask="url(#_mask_f86jpAxbtwKeb559TZqO1GH0YSaYCLsi)" vector-effect="non-scaling-stroke" stroke-width="2" stroke="url(#_lgradient_29)" stroke-linejoin="miter" stroke-linecap="butt" stroke-miterlimit="4"/><path d=" M 2.254 18.976 L 9.2 18.976 L 12.234 21.992 L 12.234 31.978 L 2.254 31.978 L 2.254 18.976 Z " fill="none"/><path d=" M 7.431 24.642 L 3.1 21.474 L 8.466 21.489 L 4.114 24.631 L 5.789 19.532 L 7.431 24.642" fill="rgb(219,191,127)"/><mask id="_mask_fm4tCWfixD6lwYKi3Nvlf4TjxKv9K8Xz" x="-200%" y="-200%" width="400%" height="400%"><rect x="-200%" y="-200%" width="400%" height="400%" style="fill:white;"/><line x1="8.129" y1="24.692" x2="14.498" y2="30.998" fill="black" stroke="none"/></mask><line x1="8.129" y1="24.692" x2="14.498" y2="30.998" mask="url(#_mask_fm4tCWfixD6lwYKi3Nvlf4TjxKv9K8Xz)" vector-effect="non-scaling-stroke" stroke-width="4" stroke="rgb(57,78,117)" stroke-linejoin="miter" stroke-linecap="round" stroke-miterlimit="4"/><mask id="_mask_UIdV8F10hc9qWUxntKJzYhwyNoRAuMX2" x="-200%" y="-200%" width="400%" height="400%"><rect x="-200%" y="-200%" width="400%" height="400%" style="fill:white;"/><line x1="8.188" y1="24.712" x2="8.66" y2="25.178" fill="black" stroke="none"/></mask><line x1="8.188" y1="24.712" x2="8.66" y2="25.178" mask="url(#_mask_UIdV8F10hc9qWUxntKJzYhwyNoRAuMX2)" vector-effect="non-scaling-stroke" stroke-width="3" stroke="rgb(255,255,255)" stroke-linejoin="miter" stroke-linecap="round" stroke-miterlimit="4"/><path d=" M 7.133 27.992 L 3.249 27.302 L 6.796 25.577 L 4.94 29.057 L 4.396 25.151 L 7.133 27.992" fill="rgb(219,191,127)"/><g><g><g><g><path d=" M 6.457 14.026 L 4.286 11.812 C 3.96 11.479 3.876 10.978 4.076 10.557 L 5.82 6.852 L 12.993 14.026 L 6.457 14.026 Z " fill="rgb(3,86,155)"/><path d=" M 15 9.407 L 10.743 5.314 C 10.408 4.99 9.909 4.908 9.488 5.108 L 5.82 6.852 L 12.993 14.026 L 15 14.024 L 15 9.407 L 15 9.407 Z " fill="rgb(57,206,253)"/></g><linearGradient id="_lgradient_30" x1="0.1067381611540143" y1="0.7967711227510815" x2="0.5320721936675341" y2="0.38603085299739814" gradientTransform="matrix(7.174,0,0,9.179,5.82,6.852)" gradientUnits="userSpaceOnUse"><stop offset="50.94%" stop-opacity="0.9" style="stop-color:rgb(57,206,253)"/><stop offset="100%" stop-opacity="1" style="stop-color:rgb(57,206,253)"/></linearGradient><path d=" M 5.82 6.852 L 5.82 12.775 C 5.82 13.161 5.97 13.531 6.239 13.807 L 8.402 16.031 L 12.993 16.031 L 12.993 14.025 L 5.82 6.852 Z " fill="url(#_lgradient_30)"/><path d=" M 11.737 6.855 L 5.82 6.852 L 12.993 14.025 L 12.993 14.024 L 15 14.024 L 15 9.407 L 12.759 7.265 C 12.483 7.002 12.117 6.856 11.737 6.855 Z " fill="rgb(3,86,155)"/><g opacity="0.3"><linearGradient id="_lgradient_31" x1="0.8137875441193216" y1="0.11211744135217833" x2="0.43647865194125024" y2="0.4764804152790826" gradientTransform="matrix(9.18,0,0,7.174,5.82,6.852)" gradientUnits="userSpaceOnUse"><stop offset="0%" stop-opacity="1" style="stop-color:rgb(255,255,255)"/><stop offset="21.62%" stop-opacity="1" style="stop-color:rgb(252,253,254)"/><stop offset="35.18%" stop-opacity="1" style="stop-color:rgb(244,246,249)"/><stop offset="46.52%" stop-opacity="1" style="stop-color:rgb(229,235,241)"/><stop offset="56.64%" stop-opacity="1" style="stop-color:rgb(208,220,230)"/><stop offset="65.95%" stop-opacity="1" style="stop-color:rgb(182,199,215)"/><stop offset="74.66000000000001%" stop-opacity="1" style="stop-color:rgb(149,174,197)"/><stop offset="82.92%" stop-opacity="1" style="stop-color:rgb(109,144,176)"/><stop offset="90.81%" stop-opacity="1" style="stop-color:rgb(64,110,152)"/><stop offset="98.14%" stop-opacity="1" style="stop-color:rgb(14,72,125)"/><stop offset="100%" stop-opacity="1" style="stop-color:rgb(0,61,117)"/></linearGradient><path d=" M 11.733 6.852 L 5.82 6.852 L 12.993 14.025 L 12.993 14.023 L 15 14.023 L 15 9.426 L 12.8 7.284 C 12.513 7.007 12.131 6.852 11.733 6.852 Z " fill="url(#_lgradient_31)"/></g><g><g opacity="0.6"><linearGradient id="_lgradient_32" x1="0" y1="0.5" x2="0.7071067812367905" y2="-0.20710678113630454" gradientTransform="matrix(0,0,0,0,5.82,6.852)" gradientUnits="userSpaceOnUse"><stop offset="45.879999999999995%" stop-opacity="1" style="stop-color:rgb(255,255,255)"/><stop offset="55.489999999999995%" stop-opacity="1" style="stop-color:rgb(252,253,254)"/><stop offset="61.51%" stop-opacity="1" style="stop-color:rgb(244,246,249)"/><stop offset="66.56%" stop-opacity="1" style="stop-color:rgb(229,235,241)"/><stop offset="71.05%" stop-opacity="1" style="stop-color:rgb(208,220,230)"/><stop offset="75.19%" stop-opacity="1" style="stop-color:rgb(182,199,215)"/><stop offset="79.06%" stop-opacity="1" style="stop-color:rgb(149,174,197)"/><stop offset="82.73%" stop-opacity="1" style="stop-color:rgb(109,144,176)"/><stop offset="86.24000000000001%" stop-opacity="1" style="stop-color:rgb(64,110,152)"/><stop offset="89.5%" stop-opacity="1" style="stop-color:rgb(14,72,125)"/><stop offset="90.32%" stop-opacity="1" style="stop-color:rgb(0,61,117)"/></linearGradient><path d=" M 5.82 6.852 L 5.82 6.852 L 5.82 6.852 L 5.82 6.852 Z " fill="url(#_lgradient_32)"/></g><g opacity="0.6"><linearGradient id="_lgradient_33" x1="0.19594812605768458" y1="0.7969545317220543" x2="1.152657718282858" y2="-0.427577757341677" gradientTransform="matrix(2.236,0,0,6.92,3.969,6.852)" gradientUnits="userSpaceOnUse"><stop offset="45.879999999999995%" stop-opacity="1" style="stop-color:rgb(255,255,255)"/><stop offset="55.489999999999995%" stop-opacity="1" style="stop-color:rgb(252,253,254)"/><stop offset="61.51%" stop-opacity="1" style="stop-color:rgb(244,246,249)"/><stop offset="66.56%" stop-opacity="1" style="stop-color:rgb(229,235,241)"/><stop offset="71.05%" stop-opacity="1" style="stop-color:rgb(208,220,230)"/><stop offset="75.19%" stop-opacity="1" style="stop-color:rgb(182,199,215)"/><stop offset="79.06%" stop-opacity="1" style="stop-color:rgb(149,174,197)"/><stop offset="82.73%" stop-opacity="1" style="stop-color:rgb(109,144,176)"/><stop offset="86.24000000000001%" stop-opacity="1" style="stop-color:rgb(64,110,152)"/><stop offset="89.5%" stop-opacity="1" style="stop-color:rgb(14,72,125)"/><stop offset="90.32%" stop-opacity="1" style="stop-color:rgb(0,61,117)"/></linearGradient><path d=" M 5.82 12.775 L 5.82 6.852 L 4.078 10.552 C 3.874 10.986 3.962 11.501 4.299 11.842 L 6.205 13.771 C 5.958 13.499 5.82 13.144 5.82 12.775 Z " fill="url(#_lgradient_33)"/></g></g></g></g></g></g></svg>